<?xml version="1.0" encoding="UTF-8" standalone="no"?>
<svg
   version="1.0"
   width="16"
   height="16"
   id="svg3783"
   sodipodi:docname="parole-extension.svg"
   inkscape:version="1.2.2 (b0a8486541, 2022-12-01)"
   inkscape:export-filename="parole-extension.png"
   inkscape:export-xdpi="96"
   inkscape:export-ydpi="96"
   xmlns:inkscape="http://www.inkscape.org/namespaces/inkscape"
   xmlns:sodipodi="http://sodipodi.sourceforge.net/DTD/sodipodi-0.dtd"
   xmlns:xlink="http://www.w3.org/1999/xlink"
   xmlns="http://www.w3.org/2000/svg"
   xmlns:svg="http://www.w3.org/2000/svg"
   xmlns:rdf="http://www.w3.org/1999/02/22-rdf-syntax-ns#"
   xmlns:cc="http://creativecommons.org/ns#"
   xmlns:dc="http://purl.org/dc/elements/1.1/">
  <sodipodi:namedview
     id="namedview8757"
     pagecolor="#ffffff"
     bordercolor="#666666"
     borderopacity="1.0"
     inkscape:showpageshadow="2"
     inkscape:pageopacity="0.0"
     inkscape:pagecheckerboard="0"
     inkscape:deskcolor="#d1d1d1"
     showgrid="false"
     inkscape:zoom="29.5"
     inkscape:cx="3.4067797"
     inkscape:cy="8.4576271"
     inkscape:window-width="1316"
     inkscape:window-height="924"
     inkscape:window-x="218"
     inkscape:window-y="0"
     inkscape:window-maximized="0"
     inkscape:current-layer="svg3783" />
  <metadata
     id="metadata43">
    <rdf:RDF>
      <cc:Work
         rdf:about="">
        <dc:format>image/svg+xml</dc:format>
        <dc:type
           rdf:resource="http://purl.org/dc/dcmitype/StillImage" />
      </cc:Work>
    </rdf:RDF>
  </metadata>
  <defs
     id="defs3785">
    <linearGradient
       inkscape:collect="always"
       id="linearGradient9577">
      <stop
         style="stop-color:#aef766;stop-opacity:1"
         offset="0"
         id="stop9573" />
      <stop
         style="stop-color:#6acc0a;stop-opacity:1"
         offset="1"
         id="stop9575" />
    </linearGradient>
    <linearGradient
       inkscape:collect="always"
       xlink:href="#linearGradient9577"
       id="linearGradient9579"
       x1="9.0135727"
       y1="0.75367969"
       x2="9.0135727"
       y2="14.799953"
       gradientUnits="userSpaceOnUse" />
  </defs>
  <path
     d="m 6.5,0.50000031 c -0.980526,0 -2,0.79578939 -2,1.77631569 0,0.612829 0.527473,1.2043637 1,1.523684 l 0,0.7524572 -4.2105262,0 c -0.43736839,0 -0.78947374,0.3521053 -0.78947374,0.7894737 l 0,3.3365233 C 0.82554001,8.2699485 1.3190131,8.0000002 1.881579,8.0000002 c 0.9805263,0 1.7763158,0.7957895 1.7763158,1.7763158 0,0.980526 -0.7957895,1.776316 -1.7763158,1.776316 -0.5625659,0 -1.05603899,-0.269948 -1.38157894,-0.678454 l 0,3.836348 c 0,0.437369 0.35210535,0.789474 0.78947374,0.789474 L 5,15.5 C 4.591495,15.17446 4.223684,14.680987 4.223684,14.118421 c 0,-0.980526 0.79579,-1.776315 1.776316,-1.776315 0.980527,0 1.776316,0.795789 1.776316,1.776315 C 7.776316,14.680987 7.408506,15.17446 7,15.5 l 3.705263,0 C 11.142631,15.5 11.5,15.147895 11.5,14.710526 l 0,-4.223684 0.755757,0 c 0.31932,0.472528 0.215751,1.054122 1.744243,1.054122 0.980527,0 1.5,-0.855619 1.5,-2.0409641 0,-1.1853455 -0.519473,-1.9891565 -1.5,-1.9891565 -1.528492,0 -1.424923,0.5297868 -1.744243,1.0023144 l -0.755757,0 0,-3.1712269 C 11.5,4.9045625 11.142631,4.5524572 10.705263,4.5524572 L 7.5,4.5524572 7.5,3.8 c 0.472528,-0.3193203 1,-0.910855 1,-1.523684 0,-0.9805263 -1.019473,-1.77631569 -2,-1.77631569 z"
     id="rect3558"
     style="fill:url(#linearGradient9579);fill-opacity:1;stroke:none;stroke-width:1.00000012;stroke-linecap:round;stroke-linejoin:round;stroke-miterlimit:4;stroke-opacity:1;stroke-dasharray:none;stroke-dashoffset:0" />
  <path
     style="fill:none;fill-opacity:1;stroke:#263742;stroke-width:1.00000012;stroke-linecap:round;stroke-linejoin:round;stroke-miterlimit:4;stroke-opacity:1;stroke-dasharray:none;stroke-dashoffset:0;opacity:0.4"
     id="path932"
     d="m 6.5,0.50000031 c -0.980526,0 -2,0.79578939 -2,1.77631569 0,0.612829 0.527473,1.2043637 1,1.523684 l 0,0.7524572 -4.2105262,0 c -0.43736839,0 -0.78947374,0.3521053 -0.78947374,0.7894737 l 0,3.3365233 C 0.82554001,8.2699485 1.3190131,8.0000002 1.881579,8.0000002 c 0.9805263,0 1.7763158,0.7957895 1.7763158,1.7763158 0,0.980526 -0.7957895,1.776316 -1.7763158,1.776316 -0.5625659,0 -1.05603899,-0.269948 -1.38157894,-0.678454 l 0,3.836348 c 0,0.437369 0.35210535,0.789474 0.78947374,0.789474 L 5,15.5 C 4.591495,15.17446 4.223684,14.680987 4.223684,14.118421 c 0,-0.980526 0.79579,-1.776315 1.776316,-1.776315 0.980527,0 1.776316,0.795789 1.776316,1.776315 C 7.776316,14.680987 7.408506,15.17446 7,15.5 l 3.705263,0 C 11.142631,15.5 11.5,15.147895 11.5,14.710526 l 0,-4.223684 0.755757,0 c 0.31932,0.472528 0.215751,1.054122 1.744243,1.054122 0.980527,0 1.5,-0.855619 1.5,-2.0409641 0,-1.1853455 -0.519473,-1.9891565 -1.5,-1.9891565 -1.528492,0 -1.424923,0.5297868 -1.744243,1.0023144 l -0.755757,0 0,-3.1712269 C 11.5,4.9045625 11.142631,4.5524572 10.705263,4.5524572 L 7.5,4.5524572 7.5,3.8 c 0.472528,-0.3193203 1,-0.910855 1,-1.523684 0,-0.9805263 -1.019473,-1.77631569 -2,-1.77631569 z" />
</svg>
