<?xml version="1.0" encoding="UTF-8" standalone="no"?>
<!-- Created with Inkscape (http://www.inkscape.org/) -->

<svg
   version="1.0"
   width="16"
   height="16"
   id="svg3783"
   sodipodi:version="0.32"
   inkscape:version="1.2.2 (b0a8486541, 2022-12-01)"
   sodipodi:docname="parole-extension-symbolic.svg"
   inkscape:output_extension="org.inkscape.output.svg.inkscape"
   xmlns:inkscape="http://www.inkscape.org/namespaces/inkscape"
   xmlns:sodipodi="http://sodipodi.sourceforge.net/DTD/sodipodi-0.dtd"
   xmlns="http://www.w3.org/2000/svg"
   xmlns:svg="http://www.w3.org/2000/svg"
   xmlns:rdf="http://www.w3.org/1999/02/22-rdf-syntax-ns#"
   xmlns:cc="http://creativecommons.org/ns#"
   xmlns:dc="http://purl.org/dc/elements/1.1/">
  <metadata
     id="metadata43">
    <rdf:RDF>
      <cc:Work
         rdf:about="">
        <dc:format>image/svg+xml</dc:format>
        <dc:type
           rdf:resource="http://purl.org/dc/dcmitype/StillImage" />
      </cc:Work>
    </rdf:RDF>
  </metadata>
  <sodipodi:namedview
     inkscape:window-height="789"
     inkscape:window-width="1280"
     inkscape:pageshadow="2"
     inkscape:pageopacity="0.0"
     guidetolerance="10.0"
     gridtolerance="10.0"
     objecttolerance="10.0"
     borderopacity="1.0"
     bordercolor="#666666"
     pagecolor="#ffffff"
     id="base"
     showgrid="true"
     inkscape:zoom="14.672466"
     inkscape:cx="-5.5546218"
     inkscape:cy="5.8613187"
     inkscape:window-x="461"
     inkscape:window-y="92"
     inkscape:current-layer="svg3783"
     inkscape:window-maximized="0"
     inkscape:showpageshadow="2"
     inkscape:pagecheckerboard="0"
     inkscape:deskcolor="#d1d1d1">
    <inkscape:grid
       type="xygrid"
       id="grid3037"
       empspacing="5"
       visible="true"
       enabled="true"
       snapvisiblegridlinesonly="true" />
  </sodipodi:namedview>
  <defs
     id="defs3785" />
  <path
     style="font-size:medium;font-style:normal;font-variant:normal;font-weight:normal;font-stretch:normal;text-indent:0;text-align:start;text-decoration:none;line-height:normal;letter-spacing:normal;word-spacing:normal;text-transform:none;direction:ltr;block-progression:tb;writing-mode:lr-tb;text-anchor:start;baseline-shift:baseline;color:#000000;fill:#bebebe;fill-opacity:1;fill-rule:nonzero;stroke:none;stroke-width:1.00000012;marker:none;visibility:visible;display:inline;overflow:visible;enable-background:accumulate;font-family:Sans;-inkscape-font-specification:Sans"
     d="M 6.5,0 C 5.8744713,0 5.278362,0.22816067 4.8125,0.625 4.346638,1.0218393 4,1.6177 4,2.28125 4,3.0575395 4.5024904,3.60552 5,4 l 0,0.0625 -3.71875,0 C 0.57553015,4.0625 0,4.6380301 0,5.34375 L 0,8.6875 C -0.0183801,9.1144022 0.65759575,9.3474974 0.90625,9 1.1452176,8.7001301 1.4723847,8.5 1.875,8.5 c 0.7099949,0 1.28125,0.5712551 1.28125,1.28125 0,0.709994 -0.5712553,1.28125 -1.28125,1.28125 -0.4026154,0 -0.7297825,-0.20013 -0.96875,-0.5 C 0.65759575,10.215003 -0.0183801,10.448098 0,10.875 l 0,3.84375 C 0,15.42447 0.57553038,16 1.28125,16 L 5,16 C 5.4269022,16.01838 5.6599974,15.342404 5.3125,15.09375 4.9821933,14.830527 4.71875,14.469629 4.71875,14.125 c 0,-0.709994 0.5712554,-1.28125 1.28125,-1.28125 0.7099959,0 1.28125,0.571255 1.28125,1.28125 0,0.34463 -0.2634429,0.705527 -0.59375,0.96875 C 6.3400026,15.342404 6.5730978,16.01838 7,16 l 3.71875,0 C 11.424469,16 12,15.428482 12,14.71875 l 0,-3.6875 c 0.06972,0.158372 0.09506,0.283212 0.3125,0.5 0.326167,0.325182 0.859837,0.5 1.6875,0.5 0.635699,0 1.198791,-0.304395 1.53125,-0.78125 C 15.863709,10.773145 16,10.165714 16,9.5 16,8.8342862 15.868069,8.2470774 15.53125,7.78125 15.194431,7.3154226 14.626893,7 14,7 13.177986,7 12.675881,7.1585978 12.34375,7.46875 12.110619,7.686453 12.072643,7.8399131 12,8 L 12,5.34375 C 12,4.6340185 11.42447,4.0625 10.71875,4.0625 L 8,4.0625 8,4 C 8.4975103,3.6055197 9,3.057539 9,2.28125 9,1.6177001 8.6533619,1.0218394 8.1875,0.625 7.7216381,0.22816061 7.1255291,0 6.5,0 z"
     id="rect3558"
     inkscape:connector-curvature="0"
     sodipodi:nodetypes="sssccssccsssccssccsssccsscssssssscssccsss" />
</svg>
