<?xml version="1.0" encoding="UTF-8" standalone="no"?>
<svg
   version="1.0"
   width="48"
   height="48"
   id="svg3783"
   viewBox="0 0 48 48"
   sodipodi:docname="parole-extension.svg"
   inkscape:version="1.2.2 (b0a8486541, 2022-12-01)"
   inkscape:export-filename="parole-extension.png"
   inkscape:export-xdpi="96"
   inkscape:export-ydpi="96"
   xmlns:inkscape="http://www.inkscape.org/namespaces/inkscape"
   xmlns:sodipodi="http://sodipodi.sourceforge.net/DTD/sodipodi-0.dtd"
   xmlns:xlink="http://www.w3.org/1999/xlink"
   xmlns="http://www.w3.org/2000/svg"
   xmlns:svg="http://www.w3.org/2000/svg"
   xmlns:rdf="http://www.w3.org/1999/02/22-rdf-syntax-ns#"
   xmlns:cc="http://creativecommons.org/ns#"
   xmlns:dc="http://purl.org/dc/elements/1.1/">
  <sodipodi:namedview
     id="namedview11513"
     pagecolor="#ffffff"
     bordercolor="#666666"
     borderopacity="1.0"
     inkscape:showpageshadow="2"
     inkscape:pageopacity="0.0"
     inkscape:pagecheckerboard="0"
     inkscape:deskcolor="#d1d1d1"
     showgrid="false"
     inkscape:zoom="9.8333333"
     inkscape:cx="21.508475"
     inkscape:cy="19.271187"
     inkscape:window-width="1350"
     inkscape:window-height="722"
     inkscape:window-x="423"
     inkscape:window-y="265"
     inkscape:window-maximized="0"
     inkscape:current-layer="svg3783" />
  <metadata
     id="metadata43">
    <rdf:RDF>
      <cc:Work
         rdf:about="">
        <dc:format>image/svg+xml</dc:format>
        <dc:type
           rdf:resource="http://purl.org/dc/dcmitype/StillImage" />
      </cc:Work>
    </rdf:RDF>
  </metadata>
  <defs
     id="defs3785">
    <linearGradient
       inkscape:collect="always"
       id="linearGradient12061">
      <stop
         style="stop-color:#aef766;stop-opacity:1"
         offset="0"
         id="stop12057" />
      <stop
         style="stop-color:#6acc0a;stop-opacity:1"
         offset="1"
         id="stop12059" />
    </linearGradient>
    <linearGradient
       id="linearGradient199">
      <stop
         id="stop191"
         style="stop-color:#ffffff;stop-opacity:1"
         offset="0" />
      <stop
         id="stop193"
         style="stop-color:#ffffff;stop-opacity:0.23529412"
         offset="0.03846155" />
      <stop
         id="stop195"
         style="stop-color:#ffffff;stop-opacity:0.15686275"
         offset="1" />
      <stop
         id="stop197"
         style="stop-color:#ffffff;stop-opacity:0.39215687"
         offset="1" />
    </linearGradient>
    <linearGradient
       y2="-5.7774076"
       x2="107.05136"
       y1="-23.105574"
       x1="107.05136"
       gradientTransform="matrix(0.40641825,0,0,0.40396655,-19.882631,15.708882)"
       gradientUnits="userSpaceOnUse"
       id="linearGradient4362"
       xlink:href="#linearGradient4364" />
    <linearGradient
       id="linearGradient4364">
      <stop
         offset="0"
         style="stop-color:#ffffff;stop-opacity:1"
         id="stop4366" />
      <stop
         offset="0.40000001"
         style="stop-color:#ffffff;stop-opacity:0.23529412"
         id="stop4368" />
      <stop
         offset="0.80000001"
         style="stop-color:#ffffff;stop-opacity:0.15686275"
         id="stop4370" />
      <stop
         offset="1"
         style="stop-color:#ffffff;stop-opacity:0.39215687"
         id="stop4372" />
    </linearGradient>
    <linearGradient
       xlink:href="#linearGradient199"
       id="linearGradient189"
       gradientUnits="userSpaceOnUse"
       gradientTransform="matrix(0.2817955,0,0,0.2800956,-52.095521,29.846119)"
       x1="254.07483"
       y1="-53.003757"
       x2="254.07483"
       y2="39.821693" />
    <linearGradient
       inkscape:collect="always"
       xlink:href="#linearGradient12061"
       id="linearGradient12063"
       x1="31.938719"
       y1="8.6385851"
       x2="31.938719"
       y2="43.273926"
       gradientUnits="userSpaceOnUse"
       gradientTransform="translate(-3,-2.0000001)" />
  </defs>
  <path
     d="M 21,4.4999998 C 18.516,4.4999998 16.5,6.516 16.5,9 c 0,1.5525 0.80293,2.909805 2,3.71875 V 13.5 h -10 c -1.108,0 -2,0.892 -2,2 v 9.71875 C 7.324701,24.183869 8.574833,23.5 10,23.5 c 2.484,0 4.5,2.016 4.5,4.5 0,2.484 -2.016,4.5 -4.5,4.5 -1.425167,0 -2.675299,-0.683869 -3.5,-1.71875 V 40.5 c 0,1.108 0.892,2 2,2 h 9.71875 C 17.183869,41.675299 16.5,40.425167 16.5,39 c 0,-2.484 2.016,-4.5 4.5,-4.5 2.484,0 4.5,2.016 4.5,4.5 0,1.425167 -0.683869,2.675299 -1.71875,3.5 H 33.5 c 1.108,0 2,-0.892 2,-2 v -10 h 0.78125 c 0.808945,1.19707 2.16625,2 3.71875,2 2.484,0 4.5,-2.016 4.5,-4.5 0,-2.484 -2.016,-4.5 -4.5,-4.5 -1.5525,0 -2.909805,0.80293 -3.71875,2 H 35.5 v -10 c 0,-1.108 -0.892,-2 -2,-2 h -10 V 12.71875 C 24.69707,11.909805 25.5,10.5525 25.5,9 25.5,6.5159998 23.484,4.4999998 21,4.4999998 Z"
     id="rect3558"
     style="opacity:1;fill:url(#linearGradient12063);fill-opacity:1;stroke:none;stroke-width:1;stroke-linecap:butt;stroke-linejoin:miter;stroke-miterlimit:4;stroke-dasharray:none;stroke-dashoffset:0;stroke-opacity:1;marker:none" />
  <path
     d="m 19.59375,13.5 c -0.0051,0.601922 -0.491828,1.088615 -1.09375,1.09375 h -10 c -0.515968,0 -0.90625,0.390282 -0.90625,0.90625 V 23 C 8.321883,22.642157 9.132253,22.40625 10,22.40625 c 3.080841,0 5.59375,2.512909 5.59375,5.59375 0,3.080841 -2.512909,5.59375 -5.59375,5.59375 -0.867747,0 -1.678117,-0.235907 -2.40625,-0.59375 v 7.5 c 0,0.515968 0.390282,0.90625 0.90625,0.90625 H 16 C 15.642157,40.678117 15.40625,39.867747 15.40625,39 c 0,-3.080841 2.512909,-5.59375 5.59375,-5.59375 3.080841,0 5.59375,2.512909 5.59375,5.59375 0,0.867747 -0.235907,1.678117 -0.59375,2.40625 h 7.5 c 0.515968,0 0.90625,-0.390282 0.90625,-0.90625 v -10 c 0.0051,-0.601922 0.491828,-1.088615 1.09375,-1.09375 h 0.78125 c 0.36053,-0.0012 0.69891,0.173803 0.90625,0.46875 0.616564,0.912386 1.640335,1.53125 2.8125,1.53125 1.887159,0 3.40625,-1.519091 3.40625,-3.40625 0,-1.887159 -1.519091,-3.40625 -3.40625,-3.40625 -1.172165,0 -2.195936,0.618864 -2.8125,1.53125 -0.20734,0.294947 -0.54572,0.469971 -0.90625,0.46875 H 35.5 C 34.898078,26.588615 34.411385,26.101922 34.40625,25.5 v -10 c 0,-0.515968 -0.390282,-0.90625 -0.90625,-0.90625 h -10 C 22.898078,14.588615 22.411385,14.101922 22.40625,13.5"
     id="path3741"
     style="opacity:0.6;fill:none;fill-opacity:1;stroke:url(#linearGradient189);stroke-width:1;stroke-linecap:butt;stroke-linejoin:miter;stroke-miterlimit:4;stroke-dasharray:none;stroke-dashoffset:0;stroke-opacity:1;marker:none" />
  <path
     id="path4335"
     d="m 19.59375,13.5 c 0,-0.265179 -0.01121,-1.320114 -0.01121,-1.320114 -0.246288,-0.0809 -0.740728,-0.388324 -1.057416,-0.705012 C 17.89175,10.841499 17.5,9.966498 17.5,9 c 0,-1.9329967 1.567003,-3.5000001 3.5,-3.5000001 1.932997,0 3.5,1.5670034 3.5,3.5000001 0,0.966498 -0.39175,1.841499 -1.025126,2.474874 -0.316688,0.316688 -0.592461,0.632407 -1.031618,0.750079 0,0 -0.03701,0.512335 -0.03701,1.275047"
     style="color:#000000;clip-rule:nonzero;display:inline;overflow:visible;visibility:visible;opacity:0.6;isolation:auto;mix-blend-mode:normal;color-interpolation:sRGB;color-interpolation-filters:linearRGB;solid-color:#000000;solid-opacity:1;fill:none;fill-opacity:1;fill-rule:nonzero;stroke:url(#linearGradient4362);stroke-width:1;stroke-linecap:butt;stroke-linejoin:miter;stroke-miterlimit:4;stroke-dasharray:none;stroke-dashoffset:0;stroke-opacity:1;marker:none;color-rendering:auto;image-rendering:auto;shape-rendering:auto;text-rendering:auto;enable-background:accumulate" />
  <path
     d="m 21,4.5 c -2.484,0 -4.5,2.0160002 -4.5,4.5 0,1.5525 0.80293,2.909805 2,3.71875 V 13.5 h -10 c -1.108,0 -2,0.892 -2,2 v 9.71875 C 7.324701,24.183869 8.574833,23.5 10,23.5 c 2.484,0 4.5,2.016 4.5,4.5 0,2.484 -2.016,4.5 -4.5,4.5 -1.425167,0 -2.675299,-0.683869 -3.5,-1.71875 V 40.5 c 0,1.108 0.892,2 2,2 h 9.71875 C 17.183869,41.675299 16.5,40.425167 16.5,39 c 0,-2.484 2.016,-4.5 4.5,-4.5 2.484,0 4.5,2.016 4.5,4.5 0,1.425167 -0.683869,2.675299 -1.71875,3.5 H 33.5 c 1.108,0 2,-0.892 2,-2 v -10 h 0.78125 c 0.808945,1.19707 2.16625,2 3.71875,2 2.484,0 4.5,-2.016 4.5,-4.5 0,-2.484 -2.016,-4.5 -4.5,-4.5 -1.5525,0 -2.909805,0.80293 -3.71875,2 H 35.5 v -10 c 0,-1.108 -0.892,-2 -2,-2 h -10 V 12.71875 C 24.69707,11.909805 25.5,10.5525 25.5,9 25.5,6.516 23.484,4.5 21,4.5 Z"
     id="rect3558-9"
     style="opacity:0.4;fill:none;fill-opacity:1;stroke:#263742;stroke-width:1;stroke-linecap:round;stroke-linejoin:miter;stroke-miterlimit:4;stroke-dasharray:none;stroke-dashoffset:0;stroke-opacity:1;marker:none" />
</svg>
